<?xml version="1.0" encoding="utf-8"?>
<!-- Generator: Adobe Illustrator 24.1.3, SVG Export Plug-In . SVG Version: 6.00 Build 0)  -->
<svg version="1.1" xmlns="http://www.w3.org/2000/svg" xmlns:xlink="http://www.w3.org/1999/xlink" x="0px" y="0px"
	 viewBox="0 0 391.9 261.4" style="enable-background:new 0 0 391.9 261.4;" xml:space="preserve">
<style type="text/css">
	.st0{fill:#575756;}
	.st1{fill:#3C3C3B;}
	.st2{fill:#1D1D1B;}
	.st3{fill:#EC5233;}
	.st4{fill:#C97900;}
	.st5{fill:#DA3C27;}
	.st6{opacity:0.47;fill:#EC5233;}
	.st7{fill:url(#XMLID_5_);}
	.st8{fill:#DADADA;}
	.st9{fill:#F3A124;}
	.st10{fill:#FFEBC7;}
	.st11{fill:#F6F6F6;}
	.st12{fill:#F3B049;}
	.st13{fill:#F39200;}
	.st14{fill:#EDEDED;}
	.st15{fill:#E30613;}
	.st16{fill:#E3424B;}
	.st17{fill:#2B454B;}
</style>
<g id="Layer_2">
</g>
<g id="_x2014_ÎÓÈ_x5F_1">
	<g id="XMLID_1432_">
		<g id="XMLID_1436_">
			<path id="XMLID_1438_" class="st0" d="M310,171.2c21.9,0,39.6,17.7,39.6,39.6h-79.2C270.4,188.9,288.1,171.2,310,171.2z"/>
			<path id="XMLID_1437_" class="st0" d="M79.7,171.2c21.9,0,39.6,17.7,39.6,39.6l-79.2-0.6C40.4,188.6,58,171.2,79.7,171.2z"/>
		</g>
		<g id="XMLID_1433_">
			<path id="XMLID_1435_" class="st1" d="M274.9,192.4c6.6-12.6,19.9-21.2,35.1-21.2c15.2,0,28.5,8.6,35.1,21.2H274.9z"/>
			<path id="XMLID_1434_" class="st1" d="M44.6,192.4c6.6-12.6,19.9-21.2,35.1-21.2c15.2,0,28.5,8.6,35.1,21.2H44.6z"/>
		</g>
	</g>
	<g id="XMLID_1427_">
		<path id="XMLID_1431_" class="st2" d="M303.8,128.1l14.7-3.9c2.2-0.6,3.6-2.9,3-5.1l0,0c-0.6-2.2-2.9-3.6-5.1-3l-14.7,3.9
			c-2.2,0.6-3.6,2.9-3,5.1l0,0C299.3,127.4,301.6,128.7,303.8,128.1z"/>
		<path id="XMLID_1430_" class="st2" d="M284.7,144.2L284.7,144.2c-1.1-0.2-1.8-1.3-1.5-2.4l8-36.3c0.2-1.1,1.3-1.8,2.4-1.5h0
			c1.1,0.2,1.8,1.3,1.5,2.4l-8,36.3C286.8,143.8,285.8,144.4,284.7,144.2z"/>
		<path id="XMLID_1429_" class="st2" d="M231,102.6c1.3,5,4.7,5.1,7.6,4.3c2.9-0.8,4.9-2.3,3.1-7.1c-2-5.4-5.9-5.9-8.9-5.2
			C229.9,95.4,229.7,97.6,231,102.6z"/>
		
			<ellipse id="XMLID_1428_" transform="matrix(0.9682 -0.2502 0.2502 0.9682 -24.3982 64.8205)" class="st2" cx="242.7" cy="128.4" rx="8.1" ry="22.1"/>
	</g>
	<path id="XMLID_1423_" class="st3" d="M17.9,38.9c0,0,144.1-4,192,0c12.6,1,31.9,1.5,46.3,12.8c39.7,31.2,73,68.7,73,68.7
		s48.3,17.3,55,31.7c5,10.7,4,15.6,5.4,22.7c0.2,1.1,0.4,1.7,0.6,2.1h-46.1c-8.7-8.7-20.7-14.1-33.9-14.1
		c-13.2,0-25.2,5.4-33.9,14.1H113.6c-8.7-8.7-20.7-14.1-33.9-14.1c-13.2,0-25.2,5.4-33.9,14.1H14.5H1.5c-0.1,0-0.2,0-0.2,0L1.6,56.5
		C1.6,46.8,8.2,38.9,17.9,38.9z M236.5,120.6h79.9c2.4,0,3.6-2.8,2-4.5c-8.8-9.7-29.5-32-39.5-39.1c-0.8-0.7-28.4-1.2-42.6-1.3
		c-2.9,0-5.2,2.3-5.2,5.2v34.4C231.1,118.2,233.5,120.6,236.5,120.6z M361.2,162.8c1.2,2.6,5.1,7.3,8.1,8.6c1.6,0.7,2.6,1.7,8.5,2.2
		c4.3,0.5,7.1,0.9,8.4,1.1c0.7,0.1,1.4-0.5,1.2-1.2c0,0,0,0,0,0c-0.8-3.5-1.9-13.4-2.5-14.7c-0.5-1.3-3.7-5.9-12.1-9.2
		c-8.5-3.3-15.1-4.2-16.2-4.3c-1.2-0.1-2.4,0.8-1.9,2.4C355,149.1,357.8,155.5,361.2,162.8z"/>
	<path id="XMLID_1420_" class="st4" d="M236.3,75.2c-1.5,0-2.9,0.6-4,1.6c-1.1,1.1-1.7,2.5-1.7,4v34.4c0,3.2,2.6,5.8,5.8,5.8h79.9
		c1.3,0,2.4-0.7,2.9-1.9c0.5-1.1,0.3-2.4-0.5-3.4c-8.6-9.4-29.5-32-39.6-39.1C278.1,75.7,243.3,75.3,236.3,75.2z M236.3,76.1
		c19.6,0.2,41.1,0.7,42.4,1.3c10,7.1,30.9,29.6,39.4,39c0.6,0.7,0.8,1.6,0.4,2.5c-0.4,0.8-1.2,1.4-2.1,1.4h-79.9c-2.7,0-5-2.2-5-5
		V80.8c0-1.3,0.5-2.5,1.4-3.4C233.8,76.5,235,76.1,236.3,76.1z"/>
	<path id="XMLID_1419_" class="st5" d="M1.6,57.8l0-1.3c0-9.7,6.6-17.6,16.3-17.6c0,0,144.1-4,192,0c12.6,1,31.9,1.5,46.3,12.8
		c2.5,2,5,4,7.5,6H1.6z"/>
	<path id="XMLID_1416_" class="st5" d="M1.5,121.9L1.4,177c0,0,0.1,0,0.2,0h44.2c8.7-8.7,20.7-14.1,33.9-14.1
		c13.2,0,25.2,5.4,33.9,14.1h162.5c8.7-8.7,20.7-14.1,33.9-14.1c13.2,0,25.2,5.4,33.9,14.1H390c-0.2-0.4-0.4-1-0.6-2.1
		c-1.4-7.1-0.4-12.1-5.4-22.7c-5.5-11.9-39.7-25.9-51.2-30.3H1.5z M356.6,145.1c1.2,0.1,7.8,1,16.2,4.3c8.5,3.3,11.6,8,12.1,9.2
		c0.5,1.3,1.6,11.2,2.5,14.7c0,0,0,0,0,0c0.2,0.7-0.5,1.4-1.2,1.2c-1.3-0.2-4.1-0.6-8.4-1.1c-5.9-0.6-6.9-1.5-8.5-2.2
		c-3-1.3-6.9-6.1-8.1-8.6c-3.5-7.3-6.2-13.7-6.6-15.3C354.2,145.9,355.4,145,356.6,145.1z"/>
	<path id="XMLID_1415_" class="st3" d="M358.9,157.7c0.7,1.6,1.5,3.3,2.4,5.1c1.2,2.6,5.1,7.3,8.1,8.6c1.6,0.7,2.6,1.7,8.5,2.2
		c4.3,0.5,7.1,0.9,8.4,1.1c0.7,0.1,1.4-0.5,1.2-1.2c0,0,0,0,0,0c-0.8-3.5-1.9-13.4-2.5-14.7c-0.1-0.2-0.3-0.6-0.5-1h1.9
		c2.4,7.1,2,11.4,3.1,17.2c0.2,1.1,0.4,1.7,0.6,2.1h-46.1c-8.7-8.7-20.7-14.1-33.9-14.1c-13.2,0-25.2,5.4-33.9,14.1H113.6
		c-8.7-8.7-20.7-14.1-33.9-14.1c-13.2,0-25.2,5.4-33.9,14.1H1.5c-0.1,0-0.2,0-0.2,0l0-19.3H358.9z"/>
	<path id="XMLID_1414_" class="st6" d="M1.6,56.5c0-7.1,3.6-13.3,9.3-16c-0.8,4.9-1.4,9.9-1.3,14.9c2,83.1,154.4,94.6,204.5,121.6
		c-3.7-0.9-199.6,0-199.6,0H1.5c-0.1,0-0.2,0-0.2,0L1.6,56.5z"/>
	<g id="XMLID_1411_">
		<path id="XMLID_1413_" class="st3" d="M331.6,168.1c4.6,2.3,8.7,5.3,12.3,8.9c8.4,8.4,13.7,19.8,14,32.4l0,0
			c-4.1,0.7-7.4,1.2-8.2,1.3l-0.2,0c0-14.3-7.7-26.8-19.1-33.7c-6-3.6-12.9-5.7-20.4-5.7c-7.6,0-14.7,2.1-20.7,5.9
			c-11.3,6.9-18.8,19.3-18.8,33.5l0,0.1c-2.8,0-5.6,0-8.4,0c0-13.2,5.4-25.1,14-33.8c8.7-8.7,20.7-14.1,33.9-14.1
			C317.8,162.9,325.1,164.8,331.6,168.1"/>
		<path id="XMLID_1412_" class="st3" d="M45.8,177c8.7-8.7,20.7-14.1,33.9-14.1c13.2,0,25.2,5.4,33.9,14.1c8.7,8.7,14,20.6,14,33.8
			c-2.8,0-5.6,0-8.4,0c0-14.3-7.7-26.9-19.1-33.8c-6-3.6-12.9-5.7-20.4-5.7c-7.5,0-14.5,2.1-20.5,5.7c-11.3,6.8-18.8,19.1-19.1,33.2
			l-0.1,0.1c-1.9-0.4-5-1-8.3-1.7C32.3,196.3,37.6,185.2,45.8,177z"/>
	</g>
	<g id="XMLID_1401_">
		<g id="XMLID_1406_">
			<path id="XMLID_1409_" class="st2" d="M390,177c0,0-18,0-46.1,0c8.4,8.4,13.7,19.8,14,32.4l0,0c9.5-1.5,23.6-3.7,23.6-3.7
				c5.3-0.8,7.5-4.2,8.8-8.6c0.8-7.9,2.4-14.4,1-18.8C391,177.2,390.5,177.9,390,177z"/>
			<path id="XMLID_1408_" class="st2" d="M1.4,177c-2.1,1.9-1.2,9.5-1,14.1c0.4,8,6.5,13.9,14.5,14.7c3.6,0.3,10.7,1.7,16.8,2.9
				c0.6-12.3,5.8-23.4,14-31.6c-13,0-23.6,0-31.3,0H1.5C1.4,177,1.4,177,1.4,177z"/>
			<path id="XMLID_1407_" class="st2" d="M276.1,177c-51.2,0-111.5,0-162.5,0c8.7,8.7,14,20.6,14,33.8c41.9,0,92.3,0,134.5,0
				C262.1,197.6,267.5,185.7,276.1,177z"/>
		</g>
		<g id="XMLID_1402_">
			<path id="XMLID_1405_" class="st1" d="M352.6,188.8c-2.3-4.4-5.2-8.4-8.7-11.8c28.2,0,46.1,0,46.1,0c0.5,0.9,0.9,0.2,1.3,1.4
				c0.9,2.7,0.6,6.2,0,10.4H352.6z"/>
			<path id="XMLID_1404_" class="st1" d="M0.3,188.8C0,184.3-0.4,178.6,1.4,177c0,0,0.1,0,0.2,0h44.2c-3.5,3.5-6.4,7.4-8.7,11.8H0.3
				z"/>
			<path id="XMLID_1403_" class="st1" d="M122.2,188.8c-2.3-4.4-5.2-8.3-8.7-11.8h162.5c-3.5,3.5-6.4,7.4-8.7,11.8H122.2z"/>
		</g>
	</g>
	
		<radialGradient id="XMLID_5_" cx="566.4983" cy="205.8562" r="12.832" gradientTransform="matrix(-1 0 0 1 646.1469 0)" gradientUnits="userSpaceOnUse">
		<stop  offset="0.9505" style="stop-color:#FFFFFF"/>
		<stop  offset="1" style="stop-color:#989498"/>
	</radialGradient>
	<circle id="XMLID_1400_" class="st7" cx="79.6" cy="205.9" r="12.8"/>
	<path id="XMLID_1339_" class="st2" d="M48.9,207.7l-0.3,0c0,0,0,0,0-0.1c0,0,0-0.1,0-0.1c0,0,0-0.1,0-0.1c0-0.2,0-0.4,0-0.4l0.3,0
		l0-0.2l-0.3,0l0-0.7l0.3,0l0-0.2H49c0,0,0,0.5,0,0.9c0,0.2,0,0.5,0,0.6c0,0.1,0,0.2,0,0.2c0,0,0,0.1,0,0.1L48.9,207.7L48.9,207.7z"
		/>
	<path id="XMLID_1338_" class="st2" d="M49.1,209.5l-0.3,0c0,0,0-0.2,0-0.3c0-0.1,0-0.2,0-0.2c0-0.1,0-0.1,0-0.1l0.3,0l0-0.2l-0.3,0
		l-0.1-0.7l0.3,0l0-0.2l0.1,0l0.1,0.9c0,0.1,0,0.2,0,0.3c0,0.1,0,0.2,0,0.3c0,0.2,0,0.3,0,0.3L49.1,209.5L49.1,209.5z"/>
	<path id="XMLID_1337_" class="st2" d="M49.4,211.3l-0.3,0l-0.1-0.7l0.3,0c0,0,0-0.1,0-0.1c0-0.1,0-0.1,0-0.1l-0.3,0l-0.1-0.7l0.3,0
		l0-0.2l0.1,0c0,0,0.1,0.5,0.1,0.9c0,0.1,0,0.2,0.1,0.3c0,0.1,0,0.2,0.1,0.3c0,0.2,0.1,0.3,0.1,0.3L49.4,211.3L49.4,211.3z"/>
	<path id="XMLID_1336_" class="st2" d="M49.7,213.1l-0.3,0.1l-0.2-0.7l0.3-0.1l-0.1-0.2l-0.3,0.1c0,0,0-0.2-0.1-0.3l-0.1-0.3
		l0.3-0.1l0-0.2l0.1,0c0,0,0,0.1,0.1,0.3c0,0.2,0.1,0.4,0.1,0.6c0.1,0.4,0.2,0.9,0.2,0.9L49.7,213.1L49.7,213.1z"/>
	<path id="XMLID_1335_" class="st2" d="M50.2,214.9L50,215l-0.2-0.7l0.3-0.1L50,214l-0.3,0.1l-0.1-0.3c0,0,0-0.1,0-0.1
		c0,0,0-0.1,0-0.1c0-0.1,0-0.1,0-0.1l0.3-0.1l0-0.2l0.1,0c0,0,0,0.1,0.1,0.3c0,0.1,0,0.2,0.1,0.3c0,0.1,0.1,0.2,0.1,0.3l0.3,0.9
		L50.2,214.9L50.2,214.9z"/>
	<path id="XMLID_1334_" class="st2" d="M50.8,216.6l-0.3,0.1c0,0,0,0,0-0.1c0,0,0-0.1,0-0.1c0,0,0-0.1,0-0.1
		c-0.1-0.2-0.1-0.3-0.1-0.3l0.3-0.1l-0.1-0.2l-0.3,0.1l-0.2-0.7l0.3-0.1c0,0,0,0,0-0.1l0-0.1l0.1,0c0,0,0,0,0,0.1c0,0,0,0.1,0.1,0.2
		c0.1,0.2,0.1,0.4,0.2,0.6c0.1,0.2,0.1,0.4,0.2,0.6c0,0.1,0.1,0.1,0.1,0.2c0,0,0,0.1,0,0.1L50.8,216.6L50.8,216.6z"/>
	<path id="XMLID_1333_" class="st2" d="M51.5,218.3l-0.3,0.1c0,0-0.1-0.2-0.1-0.3c0-0.1-0.1-0.2-0.1-0.2c0-0.1,0-0.1,0-0.1l0.3-0.1
		l-0.1-0.2l-0.3,0.1l-0.3-0.7l0.3-0.1l-0.1-0.2l0.1-0.1c0,0,0.2,0.4,0.3,0.9c0,0.1,0.1,0.2,0.1,0.3c0,0.1,0.1,0.2,0.1,0.3
		c0.1,0.2,0.1,0.3,0.1,0.3L51.5,218.3L51.5,218.3z"/>
	<path id="XMLID_1332_" class="st2" d="M52.3,220l-0.2,0.1l-0.3-0.6l0.2-0.1c0,0,0-0.1-0.1-0.1c0,0,0-0.1,0-0.1c0,0,0,0,0,0
		l-0.2,0.1l-0.3-0.6l0.3-0.1l-0.1-0.2l0.1-0.1c0,0,0.2,0.4,0.4,0.8l0.4,0.8L52.3,220L52.3,220z"/>
	<path id="XMLID_1331_" class="st2" d="M53.2,221.6l-0.2,0.1l-0.4-0.6l0.2-0.1l-0.1-0.2l-0.2,0.1c0,0-0.1-0.2-0.2-0.3
		c-0.1-0.2-0.2-0.3-0.2-0.3l0.2-0.1l-0.1-0.2l0.1-0.1c0,0,0.1,0.1,0.1,0.3c0,0.1,0.1,0.2,0.1,0.3c0.1,0.1,0.1,0.2,0.2,0.3
		c0.2,0.4,0.5,0.8,0.5,0.8L53.2,221.6L53.2,221.6z"/>
	<path id="XMLID_1330_" class="st2" d="M54.2,223.2l-0.2,0.2c0,0,0,0-0.1-0.1c0-0.1-0.1-0.1-0.1-0.2l-0.2-0.3l0.2-0.1l-0.1-0.2
		l-0.2,0.1l-0.4-0.6l0.2-0.1l-0.1-0.2l0.1-0.1c0,0,0,0,0,0.1c0,0,0.1,0.1,0.1,0.2c0.1,0.1,0.2,0.3,0.3,0.5c0.1,0.2,0.2,0.4,0.3,0.5
		c0,0.1,0.1,0.1,0.1,0.2c0,0,0,0.1,0,0.1L54.2,223.2L54.2,223.2z"/>
	<path id="XMLID_1329_" class="st2" d="M55.3,224.7l-0.2,0.2c0,0-0.1-0.1-0.2-0.3c-0.1-0.1-0.1-0.1-0.1-0.2c0-0.1-0.1-0.1-0.1-0.1
		l0.2-0.2l-0.1-0.2l-0.2,0.2l-0.4-0.6l0.2-0.2l-0.1-0.1l0.1-0.1c0,0,0.3,0.4,0.5,0.7c0.1,0.1,0.1,0.2,0.2,0.3
		c0.1,0.1,0.1,0.2,0.2,0.2c0.1,0.1,0.2,0.2,0.2,0.2L55.3,224.7L55.3,224.7z"/>
	<path id="XMLID_1328_" class="st2" d="M56.5,226.1l-0.2,0.2l-0.5-0.5l0.2-0.2c0,0,0,0-0.1-0.1c0,0,0,0-0.1-0.1c0,0,0,0,0,0
		l-0.2,0.2l-0.4-0.6l0.2-0.2l-0.1-0.1l0.1-0.1l0.6,0.7c0.3,0.3,0.6,0.7,0.6,0.7L56.5,226.1L56.5,226.1z"/>
	<path id="XMLID_1327_" class="st2" d="M57.7,227.4l-0.2,0.2l-0.5-0.5l0.2-0.2l-0.2-0.2l-0.2,0.2c0,0,0,0-0.1-0.1
		c0,0-0.1-0.1-0.2-0.2c-0.1-0.1-0.2-0.3-0.2-0.3l0.2-0.2l-0.1-0.1l0.1-0.1c0,0,0.1,0.1,0.2,0.2c0.1,0.1,0.1,0.1,0.2,0.2
		c0.1,0.1,0.2,0.2,0.2,0.2c0.3,0.3,0.6,0.7,0.6,0.7L57.7,227.4L57.7,227.4z"/>
	<path id="XMLID_1326_" class="st2" d="M59,228.7l-0.2,0.2c0,0,0,0-0.1-0.1c0,0-0.1-0.1-0.2-0.2c-0.1-0.1-0.3-0.2-0.3-0.2l0.2-0.2
		l-0.2-0.2l-0.2,0.2c0,0-0.1-0.1-0.3-0.2c-0.1-0.1-0.1-0.1-0.2-0.2c0,0-0.1-0.1-0.1-0.1l0.2-0.2l-0.1-0.1l0.1-0.1c0,0,0,0,0.1,0.1
		c0,0,0.1,0.1,0.1,0.1c0.1,0.1,0.3,0.3,0.5,0.4c0.2,0.2,0.3,0.3,0.5,0.4c0.1,0.1,0.1,0.1,0.2,0.1c0,0,0.1,0.1,0.1,0.1L59,228.7
		L59,228.7z"/>
	<path id="XMLID_1325_" class="st2" d="M60.4,229.9l-0.2,0.2c0,0-0.1-0.1-0.3-0.2c0,0-0.1-0.1-0.1-0.1c0,0-0.1-0.1-0.1-0.1
		c0,0-0.1-0.1-0.1-0.1l0.2-0.2l-0.2-0.2l-0.2,0.2L59,229l0.2-0.2l-0.1-0.1l0.1-0.1l0.7,0.6c0.2,0.2,0.3,0.3,0.5,0.4l0.2,0.2
		L60.4,229.9L60.4,229.9z"/>
	<path id="XMLID_1324_" class="st2" d="M61.9,231l-0.2,0.2l-0.6-0.4l0.2-0.2l-0.1-0.1c0,0-0.1-0.1-0.1-0.1l-0.2,0.2l-0.6-0.4
		l0.2-0.2l-0.1-0.1l0.1-0.1c0,0,0.4,0.3,0.7,0.6c0.2,0.1,0.4,0.3,0.5,0.4c0.1,0.1,0.2,0.2,0.2,0.2L61.9,231L61.9,231z"/>
	<path id="XMLID_1323_" class="st2" d="M63.4,232l-0.1,0.2l-0.6-0.4l0.2-0.2l-0.2-0.1l-0.2,0.2c0,0,0,0-0.1-0.1
		c-0.1,0-0.1-0.1-0.2-0.1l-0.3-0.2l0.2-0.2l-0.1-0.1l0.1-0.1c0,0,0.1,0.1,0.2,0.2c0.1,0,0.2,0.1,0.2,0.2c0.1,0.1,0.2,0.1,0.3,0.2
		l0.8,0.5L63.4,232L63.4,232z"/>
	<path id="XMLID_1322_" class="st2" d="M65,232.9l-0.1,0.2c0,0,0,0,0,0c0,0,0,0-0.1,0c-0.1,0-0.1-0.1-0.2-0.1l-0.3-0.2l0.1-0.2
		l-0.2-0.1l-0.1,0.2c0,0-0.2-0.1-0.3-0.2c-0.1,0-0.2-0.1-0.2-0.1c0,0-0.1,0-0.1,0c0,0,0,0,0,0l0.1-0.2l-0.2-0.1l0.1-0.1
		c0,0,0.1,0.1,0.2,0.2c0.1,0.1,0.3,0.2,0.5,0.3c0.2,0.1,0.4,0.2,0.5,0.3c0.1,0,0.1,0.1,0.2,0.1c0,0,0.1,0,0.1,0L65,232.9L65,232.9z"
		/>
	<path id="XMLID_1321_" class="st2" d="M66.7,233.8l-0.1,0.2c0,0-0.2-0.1-0.3-0.1c-0.1,0-0.2-0.1-0.2-0.1c-0.1,0-0.1-0.1-0.1-0.1
		l0.1-0.2l-0.2-0.1l-0.1,0.2l-0.6-0.3l0.1-0.2l-0.2-0.1l0.1-0.1c0,0,0.4,0.2,0.8,0.4c0.2,0.1,0.4,0.2,0.6,0.3
		c0.2,0.1,0.3,0.1,0.3,0.1L66.7,233.8L66.7,233.8z"/>
	<path id="XMLID_1320_" class="st2" d="M68.4,234.5l-0.1,0.3l-0.7-0.3l0.1-0.3c0,0-0.1,0-0.1,0c-0.1,0-0.1,0-0.1,0l-0.1,0.3
		l-0.6-0.3l0.1-0.3l-0.2-0.1l0.1-0.1l0.8,0.4c0.1,0,0.2,0.1,0.3,0.1c0.1,0,0.2,0.1,0.3,0.1c0.2,0.1,0.3,0.1,0.3,0.1L68.4,234.5
		L68.4,234.5z"/>
	<path id="XMLID_1319_" class="st2" d="M70.1,235.1l-0.1,0.3l-0.7-0.2l0.1-0.3l-0.2-0.1l-0.1,0.3c0,0-0.2-0.1-0.3-0.1
		c-0.2-0.1-0.3-0.1-0.3-0.1l0.1-0.3l-0.2-0.1l0.1-0.1c0,0,0.1,0,0.3,0.1c0.2,0.1,0.4,0.2,0.6,0.2c0.4,0.1,0.9,0.3,0.9,0.3
		L70.1,235.1L70.1,235.1z"/>
	<path id="XMLID_1318_" class="st2" d="M71.9,235.6l-0.1,0.3l-0.7-0.2l0.1-0.3l-0.2-0.1l-0.1,0.3l-0.3-0.1c-0.1,0-0.2,0-0.2-0.1
		c-0.1,0-0.1,0-0.1,0l0.1-0.3l-0.2-0.1l0-0.1c0,0,0.1,0,0.3,0.1c0.1,0,0.2,0.1,0.3,0.1c0.1,0,0.2,0.1,0.3,0.1l0.9,0.3L71.9,235.6
		L71.9,235.6z"/>
	<path id="XMLID_1317_" class="st2" d="M73.7,236l-0.1,0.3c0,0,0,0-0.1,0c0,0-0.1,0-0.1,0c0,0-0.1,0-0.1,0c-0.2,0-0.3-0.1-0.3-0.1
		l0.1-0.3l-0.2-0.1l-0.1,0.3L72,236l0.1-0.3c0,0,0,0-0.1,0c0,0-0.1,0-0.1,0l0-0.1c0,0,0,0,0.1,0c0,0,0.1,0,0.2,0
		c0.2,0,0.4,0.1,0.6,0.1l0.6,0.1c0.1,0,0.2,0,0.2,0c0,0,0.1,0,0.1,0L73.7,236L73.7,236z"/>
	<path id="XMLID_1316_" class="st2" d="M75.5,236.3l0,0.3c0,0-0.2,0-0.3,0c-0.2,0-0.3-0.1-0.3-0.1l0-0.3l-0.2,0l0,0.3l-0.7-0.1
		l0.1-0.3l-0.2,0l0-0.1l0.9,0.2c0.1,0,0.2,0,0.3,0.1c0.1,0,0.2,0,0.3,0c0.2,0,0.3,0,0.3,0L75.5,236.3L75.5,236.3z"/>
	<path id="XMLID_1315_" class="st2" d="M77.3,236.5l0,0.3l-0.7-0.1l0-0.3c0,0-0.1,0-0.1,0c-0.1,0-0.1,0-0.1,0l0,0.3l-0.7-0.1l0-0.3
		l-0.2,0l0-0.1c0,0,0.5,0.1,0.9,0.1c0.2,0,0.5,0,0.6,0.1c0.2,0,0.3,0,0.3,0L77.3,236.5L77.3,236.5z"/>
	<path id="XMLID_1314_" class="st2" d="M79.2,236.6l0,0.3l-0.7,0l0-0.3l-0.2,0l0,0.3c0,0-0.2,0-0.4,0c-0.2,0-0.4,0-0.4,0l0-0.3
		l-0.2,0l0-0.1c0,0,0.1,0,0.3,0c0.2,0,0.4,0,0.6,0c0.5,0,0.9,0,0.9,0L79.2,236.6L79.2,236.6z"/>
	<path id="XMLID_1313_" class="st2" d="M81,236.6l0,0.3l-0.7,0l0-0.3l-0.2,0l0,0.3c0,0-0.2,0-0.4,0c-0.1,0-0.2,0-0.2,0
		c-0.1,0-0.1,0-0.1,0l0-0.3l-0.2,0l0-0.1c0,0,0.1,0,0.3,0c0.2,0,0.4,0,0.6,0c0.5,0,0.9,0,0.9,0L81,236.6L81,236.6z"/>
	<path id="XMLID_1312_" class="st2" d="M82.8,236.5l0,0.3c0,0,0,0-0.1,0c-0.1,0-0.2,0-0.2,0c-0.2,0-0.4,0-0.4,0l0-0.3l-0.2,0l0,0.3
		c0,0-0.2,0-0.4,0c-0.1,0-0.2,0-0.2,0c0,0-0.1,0-0.1,0c0,0,0,0,0,0l0-0.3l-0.2,0l0-0.1c0,0,0,0,0.1,0c0.1,0,0.1,0,0.2,0
		c0.2,0,0.4,0,0.6,0c0.2,0,0.5,0,0.6,0c0.1,0,0.2,0,0.2,0c0,0,0.1,0,0.1,0L82.8,236.5L82.8,236.5z"/>
	<path id="XMLID_1311_" class="st2" d="M84.7,236.2l0,0.3l-0.3,0.1c-0.2,0-0.3,0-0.3,0l0-0.3l-0.2,0l0,0.3l-0.7,0.1l0-0.3l-0.2,0
		l0-0.1c0,0,0.5-0.1,0.9-0.1c0.2,0,0.5-0.1,0.6-0.1c0.2,0,0.3-0.1,0.3-0.1L84.7,236.2L84.7,236.2z"/>
	<path id="XMLID_1310_" class="st2" d="M86.5,235.9l0.1,0.3c0,0-0.2,0-0.3,0.1c-0.1,0-0.2,0-0.2,0.1c0,0-0.1,0-0.1,0c0,0,0,0,0,0
		l-0.1-0.3l-0.2,0l0.1,0.3l-0.7,0.1l0-0.3l-0.2,0l0-0.1l0.9-0.2c0.1,0,0.2,0,0.3-0.1c0.1,0,0.2,0,0.3-0.1c0.2,0,0.3-0.1,0.3-0.1
		L86.5,235.9L86.5,235.9z"/>
	<path id="XMLID_1309_" class="st2" d="M88.2,235.4l0.1,0.3l-0.7,0.2l-0.1-0.3l-0.2,0.1l0.1,0.3l-0.7,0.2l-0.1-0.3l-0.2,0l0-0.1
		c0,0,0.1,0,0.3-0.1c0.2,0,0.4-0.1,0.6-0.1l0.9-0.3L88.2,235.4L88.2,235.4z"/>
	<path id="XMLID_1308_" class="st2" d="M90,234.8l0.1,0.3l-0.7,0.2l-0.1-0.3l-0.2,0.1l0.1,0.3l-0.3,0.1c-0.2,0-0.3,0.1-0.3,0.1
		l-0.1-0.3l-0.2,0.1l0-0.1c0,0,0.1,0,0.3-0.1c0.1,0,0.2,0,0.3-0.1c0.1,0,0.2-0.1,0.3-0.1c0.4-0.1,0.9-0.3,0.9-0.3L90,234.8L90,234.8
		z"/>
	<path id="XMLID_1307_" class="st2" d="M91.7,234.2l0.1,0.3c0,0,0,0-0.1,0c-0.1,0-0.1,0.1-0.2,0.1c-0.2,0.1-0.3,0.1-0.3,0.1
		l-0.1-0.3l-0.2,0.1l0.1,0.3c0,0-0.2,0.1-0.3,0.1c-0.1,0-0.2,0.1-0.2,0.1c0,0-0.1,0-0.1,0c0,0,0,0,0,0l-0.1-0.3l-0.2,0.1l0-0.1
		c0,0,0,0,0.1,0c0,0,0.1,0,0.2-0.1c0.2-0.1,0.4-0.1,0.6-0.2c0.2-0.1,0.4-0.2,0.6-0.2c0.2-0.1,0.3-0.1,0.3-0.1L91.7,234.2L91.7,234.2
		z"/>
	<path id="XMLID_1306_" class="st2" d="M93.4,233.4l0.1,0.2l-0.3,0.2c-0.1,0-0.2,0.1-0.2,0.1c-0.1,0-0.1,0-0.1,0l-0.1-0.2l-0.2,0.1
		l0.1,0.2l-0.6,0.3l-0.1-0.3l-0.2,0.1l-0.1-0.1c0,0,0.4-0.2,0.8-0.4c0.2-0.1,0.4-0.2,0.6-0.3c0.2-0.1,0.3-0.1,0.3-0.1L93.4,233.4
		L93.4,233.4z"/>
	<path id="XMLID_1305_" class="st2" d="M95,232.5l0.1,0.2l-0.6,0.4l-0.1-0.2c0,0-0.1,0-0.1,0.1l-0.1,0.1l0.1,0.2l-0.6,0.3l-0.1-0.2
		l-0.2,0.1l-0.1-0.1c0,0,0.4-0.2,0.8-0.4c0.1,0,0.2-0.1,0.3-0.2c0.1-0.1,0.2-0.1,0.3-0.1c0.1-0.1,0.2-0.1,0.2-0.1L95,232.5L95,232.5
		z"/>
	<path id="XMLID_1304_" class="st2" d="M96.6,231.6l0.2,0.2l-0.6,0.4l-0.1-0.2l-0.2,0.1l0.1,0.2c0,0,0,0-0.1,0.1c0,0-0.1,0-0.1,0.1
		c0,0-0.1,0-0.1,0.1c-0.2,0.1-0.3,0.2-0.3,0.2l-0.1-0.2l-0.2,0.1l-0.1-0.1c0,0,0.1-0.1,0.2-0.1c0.1,0,0.2-0.1,0.3-0.1
		c0.1-0.1,0.2-0.1,0.3-0.2c0.4-0.2,0.8-0.5,0.8-0.5L96.6,231.6L96.6,231.6z"/>
	<path id="XMLID_1303_" class="st2" d="M98.1,230.5l0.2,0.2c0,0,0,0,0,0c0,0,0,0-0.1,0c-0.1,0-0.1,0.1-0.2,0.1l-0.3,0.2l-0.2-0.2
		l-0.2,0.1l0.2,0.2c0,0-0.1,0.1-0.3,0.2c-0.1,0.1-0.1,0.1-0.2,0.1c-0.1,0-0.1,0.1-0.1,0.1l-0.2-0.2l-0.2,0.1l-0.1-0.1l0.2-0.2
		c0.1-0.1,0.3-0.2,0.5-0.4c0.2-0.1,0.4-0.3,0.5-0.4c0.1,0,0.1-0.1,0.2-0.1c0,0,0.1,0,0.1,0L98.1,230.5L98.1,230.5z"/>
	<path id="XMLID_1302_" class="st2" d="M99.5,229.3l0.2,0.2c0,0-0.1,0.1-0.3,0.2c-0.1,0.1-0.1,0.1-0.2,0.2c-0.1,0-0.1,0.1-0.1,0.1
		l-0.2-0.2l-0.2,0.1l0.2,0.2l-0.6,0.4l-0.2-0.2l-0.1,0.1l-0.1-0.1l0.7-0.6c0.1-0.1,0.2-0.1,0.3-0.2c0,0,0.1-0.1,0.1-0.1
		c0,0,0.1-0.1,0.1-0.1c0.1-0.1,0.2-0.2,0.2-0.2L99.5,229.3L99.5,229.3z"/>
	<path id="XMLID_1301_" class="st2" d="M100.9,228.1l0.2,0.2l-0.5,0.5l-0.2-0.2c0,0,0,0-0.1,0.1c0,0-0.1,0.1-0.1,0.1l0.2,0.2
		l-0.5,0.5l-0.2-0.2l-0.1,0.1l-0.1-0.1c0,0,0.3-0.3,0.7-0.6c0.1-0.1,0.2-0.2,0.2-0.2c0.1-0.1,0.2-0.1,0.2-0.2
		c0.1-0.1,0.2-0.2,0.2-0.2L100.9,228.1L100.9,228.1z"/>
	<path id="XMLID_1300_" class="st2" d="M102.2,226.8l0.2,0.2l-0.5,0.5l-0.2-0.2l-0.2,0.2l0.2,0.2c0,0,0,0-0.1,0.1
		c0,0-0.1,0.1-0.2,0.2c-0.1,0.1-0.3,0.2-0.3,0.2L101,228l-0.1,0.1l-0.1-0.1c0,0,0.1-0.1,0.2-0.2c0.1-0.1,0.3-0.3,0.4-0.4
		c0.3-0.3,0.6-0.7,0.6-0.7L102.2,226.8L102.2,226.8z"/>
	<path id="XMLID_1299_" class="st2" d="M103.4,225.4l0.2,0.2l-0.5,0.5l-0.2-0.2l-0.2,0.2l0.2,0.2l-0.2,0.3c-0.1,0.1-0.1,0.1-0.2,0.2
		c0,0-0.1,0.1-0.1,0.1l-0.2-0.2l-0.1,0.1l-0.1-0.1c0,0,0.1-0.1,0.2-0.2c0.1-0.1,0.3-0.3,0.4-0.5c0.1-0.2,0.3-0.3,0.4-0.5
		c0.1-0.1,0.1-0.1,0.1-0.2c0,0,0.1-0.1,0.1-0.1L103.4,225.4L103.4,225.4z"/>
	<path id="XMLID_1298_" class="st2" d="M104.5,224l0.2,0.2c0,0-0.1,0.1-0.2,0.3l-0.2,0.3l-0.2-0.2l-0.1,0.2l0.2,0.2l-0.4,0.6
		l-0.2-0.2l-0.1,0.1l-0.1-0.1c0,0,0.3-0.4,0.6-0.7c0.1-0.1,0.1-0.2,0.2-0.3c0.1-0.1,0.1-0.2,0.2-0.2c0.1-0.1,0.2-0.2,0.2-0.2
		L104.5,224L104.5,224z"/>
	<path id="XMLID_1297_" class="st2" d="M105.6,222.4l0.2,0.1l-0.4,0.6l-0.2-0.2c0,0,0,0,0,0c0,0,0,0,0,0.1c0,0-0.1,0.1-0.1,0.1
		l0.2,0.2l-0.4,0.6l-0.2-0.2l-0.1,0.1l-0.1-0.1l0.5-0.7c0,0,0.1-0.1,0.1-0.1c0,0,0.1-0.1,0.1-0.1c0.1-0.1,0.1-0.2,0.2-0.2
		c0.1-0.1,0.2-0.2,0.2-0.2L105.6,222.4L105.6,222.4z"/>
	<path id="XMLID_1296_" class="st2" d="M106.5,220.9l0.2,0.1l-0.4,0.6l-0.2-0.1l-0.1,0.2l0.2,0.1c0,0-0.1,0.2-0.2,0.3
		c-0.1,0.1-0.2,0.3-0.2,0.3l-0.2-0.1l-0.1,0.2l-0.1-0.1c0,0,0.1-0.1,0.2-0.2c0.1-0.1,0.2-0.3,0.3-0.5c0.2-0.4,0.5-0.8,0.5-0.8
		L106.5,220.9L106.5,220.9z"/>
	<path id="XMLID_1295_" class="st2" d="M107.4,219.2l0.2,0.1l-0.3,0.6l-0.2-0.1l-0.1,0.2l0.2,0.1l-0.2,0.3c0,0.1-0.1,0.2-0.1,0.2
		c0,0.1-0.1,0.1-0.1,0.1l-0.2-0.1l-0.1,0.2l-0.1-0.1c0,0,0.1-0.1,0.1-0.2c0.1-0.1,0.2-0.4,0.3-0.6l0.4-0.8L107.4,219.2L107.4,219.2z
		"/>
	<path id="XMLID_1294_" class="st2" d="M108.1,217.6l0.3,0.1c0,0,0,0,0,0.1c0,0.1-0.1,0.1-0.1,0.2l-0.1,0.3l-0.3-0.1l-0.1,0.2
		l0.3,0.1l-0.3,0.6l-0.2-0.1c0,0,0,0,0,0.1c0,0,0,0.1,0,0.1l-0.1-0.1c0,0,0.2-0.4,0.4-0.8c0.1-0.2,0.2-0.4,0.3-0.6
		c0.1-0.2,0.1-0.3,0.1-0.3L108.1,217.6L108.1,217.6z"/>
	<path id="XMLID_1293_" class="st2" d="M108.8,215.8l0.3,0.1c0,0-0.1,0.2-0.1,0.3c0,0.1-0.1,0.2-0.1,0.2c0,0,0,0.1,0,0.1
		c0,0,0,0,0,0l-0.3-0.1l-0.1,0.2l0.3,0.1l-0.3,0.7l-0.3-0.1l-0.1,0.2l-0.1-0.1c0,0,0.2-0.4,0.3-0.9c0.1-0.2,0.2-0.4,0.2-0.6
		c0.1-0.2,0.1-0.3,0.1-0.3L108.8,215.8L108.8,215.8z"/>
	<path id="XMLID_1292_" class="st2" d="M109.3,214.1l0.3,0.1l-0.2,0.7l-0.3-0.1L109,215l0.3,0.1c0,0,0,0,0,0.1c0,0.1,0,0.1-0.1,0.2
		c-0.1,0.2-0.1,0.3-0.1,0.3l-0.3-0.1l-0.1,0.2l-0.1,0c0,0,0-0.1,0.1-0.3c0.1-0.2,0.1-0.4,0.2-0.6c0.1-0.4,0.3-0.9,0.3-0.9
		L109.3,214.1L109.3,214.1z"/>
	<path id="XMLID_1291_" class="st2" d="M109.7,212.3l0.3,0.1l-0.2,0.7l-0.3-0.1l-0.1,0.2l0.3,0.1l-0.1,0.3c0,0.2-0.1,0.3-0.1,0.3
		l-0.3-0.1l-0.1,0.2l-0.1,0c0,0,0-0.1,0.1-0.3c0-0.1,0.1-0.2,0.1-0.3c0-0.1,0-0.2,0.1-0.3c0.1-0.4,0.2-0.9,0.2-0.9L109.7,212.3
		L109.7,212.3z"/>
	<path id="XMLID_1290_" class="st2" d="M110.1,210.5l0.3,0c0,0,0,0,0,0c0,0,0,0,0,0.1c0,0.1,0,0.2,0,0.2c0,0.2-0.1,0.3-0.1,0.3
		l-0.3,0l0,0.2l0.3,0l-0.1,0.7l-0.3-0.1l0,0.2l-0.1,0c0,0,0,0,0-0.1c0,0,0-0.1,0-0.2c0-0.2,0.1-0.4,0.1-0.6c0-0.2,0.1-0.5,0.1-0.6
		c0-0.1,0-0.2,0-0.2c0,0,0-0.1,0-0.1L110.1,210.5L110.1,210.5z"/>
	<path id="XMLID_1289_" class="st2" d="M110.3,208.6l0.3,0c0,0,0,0.2,0,0.4c0,0.2,0,0.3,0,0.3l-0.3,0l0,0.2l0.3,0l-0.1,0.7l-0.3,0
		l0,0.2l-0.1,0c0,0,0.1-0.5,0.1-0.9c0-0.1,0-0.2,0-0.3c0-0.1,0-0.2,0-0.3c0-0.2,0-0.3,0-0.3L110.3,208.6L110.3,208.6z"/>
	<path id="XMLID_1288_" class="st2" d="M110.4,206.8l0.3,0c0,0,0,0.2,0,0.4c0,0.1,0,0.2,0,0.2c0,0,0,0.1,0,0.1c0,0,0,0,0,0l-0.3,0
		l0,0.2l0.3,0l-0.1,0.7l-0.3,0l0,0.2l-0.1,0l0.1-0.9c0-0.2,0-0.5,0-0.6c0-0.2,0-0.3,0-0.3L110.4,206.8L110.4,206.8z"/>
	<path id="XMLID_1287_" class="st2" d="M110.4,205l0.3,0l0,0.7l-0.3,0c0,0,0,0.1,0,0.1c0,0,0,0.1,0,0.1c0,0,0,0,0,0l0.3,0l0,0.7
		l-0.3,0l0,0.2l-0.1,0c0,0,0-0.5,0-0.9c0-0.5,0-0.9,0-0.9L110.4,205L110.4,205z"/>
	<path id="XMLID_1286_" class="st2" d="M110.3,203.1l0.3,0l0.1,0.7l-0.3,0l0,0.2l0.3,0c0,0,0,0,0,0.1c0,0,0,0.1,0,0.1
		c0,0,0,0.1,0,0.1c0,0.2,0,0.4,0,0.4l-0.3,0l0,0.2l-0.1,0c0,0,0-0.1,0-0.3c0-0.2,0-0.4,0-0.6l-0.1-0.9L110.3,203.1L110.3,203.1z"/>
	<path id="XMLID_1285_" class="st2" d="M110.1,201.3l0.3,0l0.1,0.7l-0.3,0l0,0.2l0.3,0c0,0,0,0.2,0,0.3c0,0.1,0,0.2,0,0.2
		c0,0.1,0,0.1,0,0.1l-0.3,0l0,0.2l-0.1,0c0,0,0-0.1,0-0.3c0-0.1,0-0.2,0-0.3c0-0.1,0-0.2,0-0.3c-0.1-0.5-0.1-0.9-0.1-0.9
		L110.1,201.3L110.1,201.3z"/>
	<path id="XMLID_1284_" class="st2" d="M109.8,199.5l0.3-0.1c0,0,0,0.2,0.1,0.3l0.1,0.3l-0.3,0.1l0,0.2l0.3,0l0.1,0.7l-0.3,0
		c0,0,0,0,0,0.1l0,0.1l-0.1,0c0,0,0,0,0-0.1c0,0,0-0.1,0-0.2c0-0.2-0.1-0.4-0.1-0.6c0-0.2-0.1-0.5-0.1-0.6c0-0.1,0-0.2,0-0.2
		c0,0,0-0.1,0-0.1L109.8,199.5L109.8,199.5z"/>
	<path id="XMLID_1283_" class="st2" d="M109.3,197.7l0.3-0.1c0,0,0,0.2,0.1,0.3c0,0,0,0.1,0,0.1c0,0,0,0.1,0,0.1c0,0.1,0,0.1,0,0.1
		l-0.3,0.1l0.1,0.2l0.3-0.1l0.2,0.7l-0.3,0.1l0,0.2l-0.1,0c0,0-0.1-0.4-0.2-0.9c0-0.1-0.1-0.2-0.1-0.3c0-0.1-0.1-0.2-0.1-0.3
		c0-0.2-0.1-0.3-0.1-0.3L109.3,197.7L109.3,197.7z"/>
	<path id="XMLID_1282_" class="st2" d="M108.8,195.9l0.3-0.1l0.2,0.7l-0.3,0.1c0,0,0,0.1,0,0.1c0,0.1,0,0.1,0,0.1l0.3-0.1l0.2,0.7
		l-0.3,0.1l0,0.2l-0.1,0c0,0-0.1-0.4-0.3-0.9c-0.1-0.2-0.1-0.4-0.2-0.6c-0.1-0.2-0.1-0.3-0.1-0.3L108.8,195.9L108.8,195.9z"/>
	<path id="XMLID_1281_" class="st2" d="M108.1,194.2l0.3-0.1l0.3,0.7l-0.3,0.1l0.1,0.2l0.3-0.1c0,0,0,0,0,0.1c0,0,0,0.1,0,0.1
		c0,0,0,0.1,0,0.1c0.1,0.2,0.1,0.3,0.1,0.3l-0.3,0.1l0.1,0.2l-0.1,0c0,0,0-0.1-0.1-0.3c-0.1-0.2-0.1-0.4-0.2-0.6
		c-0.2-0.4-0.3-0.9-0.3-0.9L108.1,194.2L108.1,194.2z"/>
	<path id="XMLID_1280_" class="st2" d="M107.4,192.5l0.2-0.1l0.3,0.6l-0.3,0.1l0.1,0.2l0.3-0.1c0,0,0.1,0.2,0.1,0.3
		c0,0.1,0.1,0.2,0.1,0.2c0,0.1,0,0.1,0,0.1l-0.3,0.1l0.1,0.2l-0.1,0.1c0,0,0-0.1-0.1-0.3c-0.1-0.2-0.2-0.4-0.3-0.6
		c-0.2-0.4-0.4-0.8-0.4-0.8L107.4,192.5L107.4,192.5C107.4,192.5,107.4,192.5,107.4,192.5L107.4,192.5z"/>
	<path id="XMLID_1279_" class="st2" d="M106.5,190.9l0.2-0.1l0.2,0.3c0.1,0.2,0.2,0.3,0.2,0.3l-0.2,0.1l0.1,0.2l0.2-0.1l0.3,0.6
		l-0.2,0.1l0.1,0.2l-0.1,0.1l-0.4-0.8c-0.1-0.2-0.2-0.4-0.3-0.6c-0.1-0.1-0.1-0.2-0.1-0.2L106.5,190.9L106.5,190.9z"/>
	<path id="XMLID_1278_" class="st2" d="M105.6,189.3l0.2-0.1l0.4,0.6l-0.2,0.1l0.1,0.2l0.2-0.1l0.4,0.6l-0.2,0.1l0.1,0.2l-0.1,0.1
		l-0.5-0.8c-0.1-0.2-0.2-0.4-0.3-0.5c-0.1-0.1-0.2-0.2-0.2-0.2L105.6,189.3L105.6,189.3z"/>
	<path id="XMLID_1277_" class="st2" d="M104.6,187.8l0.2-0.2l0.4,0.6l-0.2,0.2l0.1,0.2l0.2-0.2c0,0,0,0,0.1,0.1
		c0,0.1,0.1,0.1,0.1,0.2l0.2,0.3l-0.2,0.1l0.1,0.2l-0.1,0.1c0,0-0.1-0.1-0.2-0.2c0-0.1-0.1-0.2-0.2-0.2c0,0-0.1-0.1-0.1-0.1
		c0,0-0.1-0.1-0.1-0.1l-0.5-0.7L104.6,187.8L104.6,187.8z"/>
	<path id="XMLID_1276_" class="st2" d="M103.4,186.3l0.2-0.2l0.4,0.6l-0.2,0.2l0.1,0.2l0.2-0.2c0,0,0.1,0.1,0.2,0.3
		c0,0,0.1,0.1,0.1,0.1c0,0,0,0.1,0.1,0.1c0,0.1,0.1,0.1,0.1,0.1l-0.2,0.2l0.1,0.1l-0.1,0.1c0,0-0.1-0.1-0.2-0.2
		c0-0.1-0.1-0.2-0.2-0.2c-0.1-0.1-0.1-0.2-0.2-0.3c-0.3-0.4-0.6-0.7-0.6-0.7L103.4,186.3L103.4,186.3z"/>
	<path id="XMLID_1275_" class="st2" d="M102.2,185l0.2-0.2c0,0,0,0,0.1,0.1c0,0,0.1,0.1,0.2,0.2c0.1,0.1,0.2,0.3,0.2,0.3l-0.2,0.2
		l0.2,0.2l0.2-0.2l0.5,0.5l-0.2,0.2c0,0,0,0,0.1,0.1c0,0,0.1,0.1,0.1,0.1l-0.1,0.1c0,0,0,0-0.1-0.1c0,0-0.1-0.1-0.1-0.2
		c-0.1-0.1-0.3-0.3-0.4-0.5c-0.2-0.2-0.3-0.3-0.4-0.5c-0.1-0.1-0.2-0.2-0.2-0.2L102.2,185L102.2,185z"/>
	<path id="XMLID_1274_" class="st2" d="M100.9,183.6l0.2-0.2c0,0,0.1,0.1,0.3,0.2c0.1,0.1,0.1,0.1,0.2,0.2c0,0,0.1,0.1,0.1,0.1
		l-0.2,0.2l0.2,0.2l0.2-0.2l0.5,0.5l-0.2,0.2l0.1,0.1l-0.1,0.1c0,0-0.3-0.3-0.6-0.7c-0.2-0.2-0.3-0.3-0.4-0.4
		c-0.1-0.1-0.2-0.2-0.2-0.2L100.9,183.6L100.9,183.6z"/>
	<path id="XMLID_1273_" class="st2" d="M99.6,182.4l0.2-0.2l0.5,0.5l-0.2,0.2l0.2,0.2l0.2-0.2c0,0,0,0,0.1,0.1c0,0,0.1,0.1,0.2,0.2
		c0.1,0.1,0.3,0.2,0.3,0.2l-0.2,0.2l0.1,0.1l-0.1,0.1c0,0-0.1-0.1-0.2-0.2c-0.1-0.1-0.1-0.1-0.2-0.2c-0.1-0.1-0.2-0.2-0.2-0.2
		c-0.3-0.3-0.7-0.6-0.7-0.6L99.6,182.4L99.6,182.4z"/>
	<path id="XMLID_1272_" class="st2" d="M98.1,181.3l0.2-0.2l0.6,0.4l-0.2,0.2l0.2,0.1l0.2-0.2c0,0,0.1,0.1,0.3,0.2
		c0.1,0.1,0.1,0.1,0.2,0.2c0,0,0.1,0.1,0.1,0.1l-0.2,0.2l0.1,0.1l-0.1,0.1c0,0-0.1-0.1-0.2-0.2c0,0-0.1-0.1-0.1-0.1
		c0,0-0.1-0.1-0.1-0.1c-0.1-0.1-0.2-0.1-0.3-0.2c-0.4-0.3-0.7-0.6-0.7-0.6L98.1,181.3L98.1,181.3z"/>
	<path id="XMLID_1271_" class="st2" d="M96.6,180.2l0.2-0.2c0,0,0,0,0.1,0.1c0.1,0,0.1,0.1,0.2,0.1c0.1,0.1,0.3,0.2,0.3,0.2
		l-0.2,0.2l0.2,0.1l0.2-0.2l0.6,0.4l-0.2,0.2c0,0,0,0,0.1,0.1c0,0,0,0,0.1,0c0,0,0,0,0,0l-0.1,0.1c0,0,0,0-0.1,0
		c0,0-0.1-0.1-0.2-0.1c-0.1-0.1-0.3-0.2-0.5-0.4c-0.2-0.1-0.4-0.3-0.5-0.4l-0.2-0.2L96.6,180.2L96.6,180.2z"/>
	<path id="XMLID_1270_" class="st2" d="M95.1,179.2l0.1-0.2c0,0,0.2,0.1,0.3,0.2c0.1,0,0.2,0.1,0.2,0.1c0,0,0.1,0,0.1,0c0,0,0,0,0,0
		l-0.1,0.2l0.2,0.1l0.1-0.2l0.6,0.4l-0.2,0.2l0.2,0.1l-0.1,0.1c0,0-0.4-0.2-0.8-0.5c-0.1-0.1-0.2-0.1-0.3-0.2
		c-0.1-0.1-0.2-0.1-0.3-0.1c-0.1-0.1-0.2-0.1-0.2-0.1L95.1,179.2L95.1,179.2z"/>
	<path id="XMLID_1269_" class="st2" d="M93.4,178.4l0.1-0.2l0.6,0.3l-0.1,0.2l0.2,0.1l0.1-0.2c0,0,0,0,0.1,0.1
		c0.1,0,0.1,0.1,0.2,0.1c0.2,0.1,0.3,0.2,0.3,0.2l-0.1,0.2l0.2,0.1l-0.1,0.1c0,0-0.1-0.1-0.2-0.1c-0.1,0-0.2-0.1-0.3-0.1
		c-0.1-0.1-0.2-0.1-0.3-0.2c-0.4-0.2-0.8-0.4-0.8-0.4L93.4,178.4L93.4,178.4z"/>
	<path id="XMLID_1268_" class="st2" d="M91.8,177.6l0.1-0.3l0.6,0.3l-0.1,0.3l0.2,0.1l0.1-0.2c0,0,0.2,0.1,0.3,0.1
		c0.1,0,0.2,0.1,0.2,0.1c0.1,0,0.1,0.1,0.1,0.1l-0.1,0.2l0.2,0.1l-0.1,0.1c0,0-0.1-0.1-0.3-0.1c-0.2-0.1-0.4-0.2-0.6-0.3
		c-0.4-0.2-0.8-0.4-0.8-0.4L91.8,177.6L91.8,177.6z"/>
	<path id="XMLID_1267_" class="st2" d="M90.1,176.9l0.1-0.3c0,0,0,0,0.1,0c0.1,0,0.1,0.1,0.2,0.1c0.2,0.1,0.3,0.1,0.3,0.1l-0.1,0.3
		l0.2,0.1L91,177l0.7,0.3l-0.1,0.3c0,0,0,0,0.1,0l0.1,0l-0.1,0.1c0,0-0.1-0.1-0.3-0.1c-0.2-0.1-0.4-0.1-0.6-0.2
		c-0.2-0.1-0.4-0.2-0.6-0.2c-0.1,0-0.1-0.1-0.2-0.1c0,0-0.1,0-0.1,0L90.1,176.9L90.1,176.9z"/>
	<path id="XMLID_1266_" class="st2" d="M88.3,176.3l0.1-0.3c0,0,0.2,0,0.3,0.1c0.1,0,0.2,0,0.2,0.1c0.1,0,0.1,0,0.1,0l-0.1,0.3
		l0.2,0.1l0.1-0.3l0.7,0.2l-0.1,0.3l0.2,0.1l0,0.1c0,0-0.4-0.1-0.9-0.3c-0.1,0-0.2-0.1-0.3-0.1c-0.1,0-0.2-0.1-0.3-0.1
		c-0.2,0-0.3-0.1-0.3-0.1L88.3,176.3L88.3,176.3z"/>
	<path id="XMLID_1265_" class="st2" d="M86.5,175.9l0.1-0.3l0.7,0.2l-0.1,0.3c0,0,0.1,0,0.1,0c0.1,0,0.1,0,0.1,0l0.1-0.3l0.7,0.2
		l-0.1,0.3l0.2,0.1l0,0.1c0,0-0.4-0.1-0.9-0.3c-0.2-0.1-0.4-0.1-0.6-0.1c-0.2,0-0.3-0.1-0.3-0.1L86.5,175.9L86.5,175.9z"/>
	<path id="XMLID_1264_" class="st2" d="M84.7,175.5l0-0.3l0.7,0.1l-0.1,0.3l0.2,0l0.1-0.3c0,0,0,0,0.1,0c0,0,0.1,0,0.1,0
		c0,0,0.1,0,0.1,0c0.2,0,0.3,0.1,0.3,0.1l-0.1,0.3l0.2,0l0,0.1c0,0-0.1,0-0.3-0.1c-0.1,0-0.2,0-0.3-0.1c-0.1,0-0.2,0-0.3-0.1
		c-0.5-0.1-0.9-0.2-0.9-0.2L84.7,175.5L84.7,175.5z"/>
	<path id="XMLID_1263_" class="st2" d="M82.9,175.3l0-0.3l0.7,0.1l0,0.3l0.2,0l0-0.3l0.3,0c0.1,0,0.2,0,0.2,0c0.1,0,0.1,0,0.1,0
		l0,0.3l0.2,0l0,0.1c0,0-0.1,0-0.3-0.1c-0.2,0-0.4-0.1-0.6-0.1c-0.5-0.1-0.9-0.1-0.9-0.1L82.9,175.3L82.9,175.3z"/>
	<path id="XMLID_1262_" class="st2" d="M81.1,175.1l0-0.3c0,0,0.2,0,0.4,0c0.2,0,0.4,0,0.4,0l0,0.3l0.2,0l0-0.3l0.7,0.1l0,0.3l0.1,0
		c0,0,0.1,0,0.1,0l0,0.1c0,0,0,0-0.1,0c0,0-0.1,0-0.2,0c-0.2,0-0.4,0-0.6,0c-0.2,0-0.5,0-0.6,0c-0.1,0-0.2,0-0.2,0
		c-0.1,0-0.1,0-0.1,0L81.1,175.1L81.1,175.1z"/>
	<path id="XMLID_1261_" class="st2" d="M79.2,175.1l0-0.3l0.4,0c0.1,0,0.2,0,0.2,0c0.1,0,0.1,0,0.1,0l0,0.3l0.2,0l0-0.3l0.7,0l0,0.3
		l0.2,0l0,0.1c0,0-0.5,0-0.9,0c-0.2,0-0.5,0-0.6,0c-0.2,0-0.3,0-0.3,0L79.2,175.1L79.2,175.1z"/>
	<path id="XMLID_1260_" class="st2" d="M77.4,175.2l0-0.3l0.7-0.1l0,0.3l0.2,0l0-0.3l0.7,0l0,0.3l0.2,0l0,0.1c0,0-0.5,0-0.9,0
		c-0.2,0-0.5,0-0.6,0c-0.2,0-0.3,0-0.3,0L77.4,175.2L77.4,175.2z"/>
	<path id="XMLID_1259_" class="st2" d="M75.5,175.4l0-0.3l0.7-0.1l0,0.3l0.2,0l0-0.3c0,0,0,0,0,0c0,0,0,0,0.1,0c0.1,0,0.2,0,0.2,0
		c0.2,0,0.4,0,0.4,0l0,0.3l0.2,0l0,0.1c0,0-0.1,0-0.3,0c-0.2,0-0.4,0-0.6,0.1c-0.5,0.1-0.9,0.1-0.9,0.1L75.5,175.4L75.5,175.4z"/>
	<path id="XMLID_1258_" class="st2" d="M73.7,175.7l-0.1-0.3l0.7-0.1l0,0.3l0.2,0l0-0.3c0,0,0,0,0.1,0c0.1,0,0.2,0,0.2,0
		c0.2,0,0.3,0,0.3,0l0,0.3l0.2,0l0,0.1c0,0-0.1,0-0.3,0c-0.1,0-0.2,0-0.3,0c-0.1,0-0.2,0-0.3,0.1c-0.5,0.1-0.9,0.2-0.9,0.2
		L73.7,175.7L73.7,175.7z"/>
	<path id="XMLID_1257_" class="st2" d="M71.9,176.1l-0.1-0.3c0,0,0,0,0,0c0,0,0,0,0.1,0c0.1,0,0.1,0,0.2-0.1l0.3-0.1l0.1,0.3
		l0.2-0.1l-0.1-0.3c0,0,0.2,0,0.3-0.1c0.1,0,0.2,0,0.2-0.1c0,0,0.1,0,0.1,0c0,0,0,0,0,0l0.1,0.3l0.2,0l0,0.1c0,0,0,0-0.1,0
		c0,0-0.1,0-0.2,0l-0.6,0.1c-0.2,0.1-0.4,0.1-0.6,0.1c-0.1,0-0.2,0-0.2,0c0,0-0.1,0-0.1,0L71.9,176.1L71.9,176.1z"/>
	<path id="XMLID_1256_" class="st2" d="M70.2,176.6l-0.1-0.3l0.3-0.1l0.3-0.1l0.1,0.3l0.2-0.1L71,176l0.7-0.2l0.1,0.3l0.2-0.1l0,0.1
		c0,0-0.4,0.1-0.9,0.3c-0.1,0-0.2,0.1-0.3,0.1c-0.1,0-0.2,0.1-0.3,0.1c-0.2,0.1-0.3,0.1-0.3,0.1L70.2,176.6L70.2,176.6z"/>
	<path id="XMLID_1255_" class="st2" d="M68.4,177.2l-0.1-0.3l0.7-0.3l0.1,0.3l0.2-0.1l-0.1-0.3l0.7-0.2l0.1,0.3l0.2-0.1l0,0.1
		l-0.9,0.3c-0.2,0.1-0.4,0.2-0.6,0.2c-0.2,0.1-0.3,0.1-0.3,0.1L68.4,177.2L68.4,177.2z"/>
	<path id="XMLID_1254_" class="st2" d="M66.7,177.9l-0.1-0.2l0.6-0.3l0.1,0.3l0.2-0.1l-0.1-0.3c0,0,0,0,0.1,0c0.1,0,0.1-0.1,0.2-0.1
		c0.2-0.1,0.3-0.1,0.3-0.1l0.1,0.3l0.2-0.1l0.1,0.1l-0.3,0.1c-0.1,0-0.2,0.1-0.3,0.1c-0.1,0-0.2,0.1-0.3,0.1l-0.8,0.4L66.7,177.9
		L66.7,177.9z"/>
	<path id="XMLID_1253_" class="st2" d="M65.1,178.7l-0.1-0.2l0.6-0.3l0.1,0.2l0.2-0.1l-0.1-0.2c0,0,0.2-0.1,0.3-0.2
		c0.1,0,0.2-0.1,0.2-0.1c0.1,0,0.1,0,0.1,0l0.1,0.2l0.2-0.1l0.1,0.1c0,0-0.1,0-0.3,0.1c-0.2,0.1-0.4,0.2-0.6,0.3
		c-0.4,0.2-0.8,0.4-0.8,0.4L65.1,178.7L65.1,178.7z"/>
	<path id="XMLID_1252_" class="st2" d="M63.5,179.7l-0.1-0.2c0,0,0,0,0.1-0.1c0,0,0.1,0,0.1-0.1c0,0,0.1,0,0.1-0.1
		c0.2-0.1,0.3-0.2,0.3-0.2l0.1,0.2l0.2-0.1l-0.1-0.2l0.6-0.4l0.1,0.2l0.1,0c0,0,0.1,0,0.1,0l0.1,0.1c0,0,0,0-0.1,0
		c0,0-0.1,0.1-0.2,0.1c-0.1,0.1-0.3,0.2-0.5,0.3c-0.2,0.1-0.4,0.2-0.5,0.3c-0.1,0.1-0.2,0.2-0.2,0.2L63.5,179.7L63.5,179.7z"/>
	<path id="XMLID_1251_" class="st2" d="M62,180.7l-0.2-0.2l0.3-0.2c0.1-0.1,0.1-0.1,0.2-0.1c0.1,0,0.1-0.1,0.1-0.1l0.2,0.2l0.2-0.1
		l-0.2-0.2l0.6-0.4l0.1,0.2l0.2-0.1l0.1,0.1l-0.8,0.5c-0.1,0.1-0.2,0.1-0.3,0.2c-0.1,0.1-0.2,0.1-0.2,0.2c-0.1,0.1-0.2,0.2-0.2,0.2
		L62,180.7L62,180.7z"/>
	<path id="XMLID_1250_" class="st2" d="M60.5,181.8l-0.2-0.2l0.6-0.4l0.2,0.2l0.2-0.1l-0.2-0.2l0.6-0.4l0.2,0.2l0.1-0.1l0.1,0.1
		c0,0-0.1,0.1-0.2,0.2c-0.1,0.1-0.3,0.2-0.5,0.4c-0.4,0.3-0.7,0.6-0.7,0.6L60.5,181.8L60.5,181.8z"/>
	<path id="XMLID_1249_" class="st2" d="M59.1,183l-0.2-0.2l0.5-0.5l0.2,0.2l0.2-0.2l-0.2-0.2c0,0,0.1-0.1,0.3-0.2
		c0.1-0.1,0.1-0.1,0.2-0.2c0.1,0,0.1-0.1,0.1-0.1l0.2,0.2l0.1-0.1l0.1,0.1l-0.2,0.2c-0.1,0.1-0.3,0.3-0.5,0.4l-0.7,0.6L59.1,183
		L59.1,183z"/>
	<path id="XMLID_1248_" class="st2" d="M57.8,184.2l-0.2-0.2c0,0,0,0,0.1-0.1c0,0,0.1-0.1,0.2-0.2c0.1-0.1,0.3-0.2,0.3-0.2l0.2,0.2
		l0.2-0.2l-0.2-0.2l0.5-0.5l0.2,0.2c0,0,0,0,0.1-0.1c0,0,0.1-0.1,0.1-0.1l0.1,0.1c0,0,0,0-0.1,0.1c0,0-0.1,0.1-0.2,0.1
		c-0.1,0.1-0.3,0.3-0.5,0.4c-0.2,0.2-0.3,0.3-0.5,0.4c-0.1,0.1-0.1,0.1-0.1,0.1c0,0-0.1,0.1-0.1,0.1L57.8,184.2L57.8,184.2z"/>
	<path id="XMLID_1247_" class="st2" d="M56.5,185.6l-0.2-0.2c0,0,0.1-0.1,0.2-0.3c0.1-0.1,0.1-0.1,0.2-0.2c0,0,0.1-0.1,0.1-0.1
		l0.2,0.2l0.2-0.2l-0.2-0.2l0.5-0.5l0.2,0.2l0.1-0.1l0.1,0.1c0,0-0.3,0.3-0.6,0.7c-0.1,0.1-0.2,0.2-0.2,0.2
		c-0.1,0.1-0.1,0.2-0.2,0.2c-0.1,0.1-0.2,0.2-0.2,0.2L56.5,185.6L56.5,185.6z"/>
	<path id="XMLID_1246_" class="st2" d="M55.3,187l-0.2-0.2l0.4-0.6l0.2,0.2l0.1-0.2l-0.2-0.2l0.5-0.5l0.2,0.2l0.1-0.1l0.1,0.1
		c0,0-0.3,0.3-0.6,0.7l-0.6,0.7L55.3,187L55.3,187z"/>
	<path id="XMLID_1245_" class="st2" d="M54.2,188.5l-0.2-0.2l0.4-0.6l0.2,0.2l0.1-0.2l-0.2-0.2c0,0,0.1-0.1,0.2-0.3L55,187l0.2,0.2
		l0.1-0.1l0.1,0.1c0,0-0.1,0.1-0.2,0.2c-0.1,0.1-0.1,0.1-0.2,0.2c-0.1,0.1-0.1,0.2-0.2,0.3c-0.3,0.4-0.5,0.7-0.5,0.7L54.2,188.5
		L54.2,188.5z"/>
	<path id="XMLID_1244_" class="st2" d="M53.2,190l-0.2-0.1c0,0,0.1-0.2,0.2-0.3c0.1-0.1,0.2-0.3,0.2-0.3l0.2,0.1l0.1-0.2l-0.2-0.1
		l0.4-0.6l0.2,0.2c0,0,0,0,0,0c0,0,0,0,0-0.1c0,0,0.1-0.1,0.1-0.1l0.1,0.1c0,0,0,0,0,0.1c0,0-0.1,0.1-0.1,0.2
		c-0.1,0.1-0.2,0.3-0.3,0.5c-0.1,0.2-0.2,0.4-0.3,0.5c0,0.1-0.1,0.1-0.1,0.2c0,0,0,0.1,0,0.1L53.2,190L53.2,190z"/>
	<path id="XMLID_1243_" class="st2" d="M49.1,202.2l-0.3,0l0.1-0.7l0.3,0l0-0.2l-0.3,0c0,0,0,0,0,0c0,0,0,0,0-0.1c0-0.1,0-0.2,0-0.2
		c0-0.2,0.1-0.3,0.1-0.3l0.3,0l0-0.2l0.1,0c0,0,0,0.1-0.1,0.3c0,0.1,0,0.2-0.1,0.3c0,0.1,0,0.2-0.1,0.3c-0.1,0.5-0.1,0.9-0.1,0.9
		L49.1,202.2L49.1,202.2z"/>
	<path id="XMLID_1242_" class="st2" d="M48.9,204l-0.3,0l0.1-0.7l0.3,0l0-0.2l-0.3,0c0,0,0-0.2,0-0.4c0-0.2,0-0.3,0-0.3l0.3,0l0-0.2
		l0.1,0c0,0,0,0.1,0,0.3c0,0.1,0,0.2,0,0.3c0,0.1,0,0.2,0,0.3l-0.1,0.9L48.9,204L48.9,204z"/>
	<path id="XMLID_1241_" class="st2" d="M48.9,205.8l-0.3,0l0-0.7l0.3,0l0-0.2l-0.3,0c0,0,0-0.2,0-0.4c0-0.1,0-0.2,0-0.2
		c0,0,0-0.1,0-0.1c0,0,0,0,0,0l0.3,0l0-0.2l0.1,0c0,0,0,0,0,0.1c0,0.1,0,0.1,0,0.2c0,0.2,0,0.4,0,0.6c0,0.5,0,0.9,0,0.9L48.9,205.8
		L48.9,205.8z"/>
	<path id="XMLID_1240_" class="st2" d="M52.4,191.7l-0.2-0.1c0,0,0.1-0.2,0.2-0.3c0.1-0.2,0.2-0.3,0.2-0.3l0.2,0.1l0.1-0.2l-0.2-0.1
		l0.4-0.6l0.2,0.1l0.1-0.2l0.1,0.1l-0.5,0.8c-0.1,0.1-0.1,0.2-0.2,0.3c-0.1,0.1-0.1,0.2-0.1,0.3c-0.1,0.2-0.1,0.3-0.1,0.3
		L52.4,191.7L52.4,191.7z"/>
	<path id="XMLID_1239_" class="st2" d="M51.6,193.3l-0.3-0.1l0.3-0.6l0.2,0.1l0-0.1c0-0.1,0.1-0.1,0.1-0.1l-0.2-0.1l0.3-0.6l0.2,0.1
		l0.1-0.2l0.1,0.1l-0.4,0.8l-0.4,0.8L51.6,193.3L51.6,193.3z"/>
	<path id="XMLID_1238_" class="st2" d="M50.8,195l-0.3-0.1l0.3-0.7l0.3,0.1l0.1-0.2l-0.3-0.1c0,0,0,0,0-0.1c0-0.1,0.1-0.1,0.1-0.2
		c0.1-0.2,0.1-0.3,0.1-0.3l0.3,0.1l0.1-0.2l0.1,0.1c0,0,0,0.1-0.1,0.3c0,0.1-0.1,0.2-0.1,0.3c0,0.1-0.1,0.2-0.1,0.3
		c-0.2,0.4-0.3,0.9-0.3,0.9L50.8,195L50.8,195z"/>
	<path id="XMLID_1237_" class="st2" d="M50.2,196.8l-0.3-0.1c0,0,0,0,0-0.1c0-0.1,0-0.1,0.1-0.2c0.1-0.2,0.1-0.3,0.1-0.3l0.3,0.1
		l0.1-0.2l-0.3-0.1c0,0,0.1-0.2,0.1-0.3c0-0.1,0.1-0.2,0.1-0.2c0,0,0-0.1,0-0.1c0,0,0,0,0,0l0.3,0.1l0.1-0.2l0.1,0.1c0,0,0,0,0,0.1
		c0,0,0,0.1-0.1,0.2c-0.1,0.2-0.1,0.4-0.2,0.6c-0.1,0.2-0.1,0.4-0.2,0.6c0,0.1-0.1,0.1-0.1,0.2c0,0,0,0.1,0,0.1L50.2,196.8
		L50.2,196.8z"/>
	<path id="XMLID_1236_" class="st2" d="M49.8,198.5l-0.3-0.1c0,0,0-0.2,0.1-0.3c0-0.2,0.1-0.3,0.1-0.3l0.3,0.1l0.1-0.2l-0.3-0.1
		l0.2-0.7l0.3,0.1l0.1-0.2l0.1,0c0,0-0.1,0.4-0.3,0.9c0,0.1-0.1,0.2-0.1,0.3c0,0.1-0.1,0.2-0.1,0.3c0,0.2-0.1,0.3-0.1,0.3
		L49.8,198.5L49.8,198.5z"/>
	<path id="XMLID_1235_" class="st2" d="M49.4,200.3l-0.3,0l0.1-0.7l0.3,0.1l0.1-0.2l-0.3-0.1l0.2-0.7l0.3,0.1l0-0.2l0.1,0
		c0,0-0.1,0.4-0.2,0.9c-0.1,0.2-0.1,0.4-0.1,0.6c0,0.2-0.1,0.3-0.1,0.3L49.4,200.3L49.4,200.3z"/>
	<path id="XMLID_82_" class="st3" d="M255.1,61.3c0.9,0.3,1.4-1.1,0.6-1.6c-4.4-2.6-13.9-6.7-30.5-7c-24.8-0.4-212.8,0-212.8,0
		s212.7,3.9,218.7,4.5C236.3,57.8,249.2,58.9,255.1,61.3z"/>
	<g id="XMLID_78_">
		<path id="XMLID_81_" class="st8" d="M315.9,115.3h7.6c0.6,0,1.1,0.5,1.1,1.1v10.5l2.6,0.4c0.3-1.1,1.1-1.9,1.9-1.9
			c1.2,0,2.1,1.4,2.1,3.2c0,1.8-0.9,3.2-2.1,3.2c-1,0-1.9-1.1-2.1-2.5l-2.5-0.3v0.1c0,0.6-0.5,1.1-1.1,1.1h-7.6
			c-0.6,0-1.1-0.5-1.1-1.1v-12.6C314.8,115.8,315.3,115.3,315.9,115.3z"/>
		<path id="XMLID_80_" class="st5" d="M315.9,113.7h7.6c0.6,0,1.1,0.5,1.1,1.1v10.5l2.6,1.5c0.3-1.1,1.1-1.9,1.9-1.9
			c1.2,0,2.1,1.4,2.1,3.2c0,1.8-0.9,3.2-2.1,3.2c-1,0-1.9-1.1-2.1-2.5l-2.5-1.4v0.1c0,0.6-0.5,1.1-1.1,1.1h-7.6
			c-0.6,0-1.1-0.5-1.1-1.1v-12.6C314.8,114.2,315.3,113.7,315.9,113.7z"/>
		<path id="XMLID_79_" class="st9" d="M315.1,114.2c0.2,4.4,4.2,8,9.6,9.1v2.1l2.6,1.5c0.3-1.1,1.1-1.9,1.9-1.9
			c1.2,0,2.1,1.4,2.1,3.2c0,1.8-0.9,3.2-2.1,3.2c-1,0-1.9-1.1-2.1-2.5l-2.5-1.4v0.1c0,0.6-0.5,1.1-1.1,1.1h-7.6
			c-0.6,0-1.1-0.5-1.1-1.1v-12.6C314.8,114.6,314.9,114.3,315.1,114.2z"/>
	</g>
	<g id="XMLID_72_">
		<path id="XMLID_77_" class="st10" d="M356.6,145.1c-1.2-0.1-2.4,0.8-1.9,2.4c0.4,1.6,3.2,8,6.6,15.3c1.2,2.6,5.1,7.3,8.1,8.6
			c1.6,0.7,2.6,1.7,8.5,2.2c4.3,0.5,7.1,0.9,8.4,1.1c0.7,0.1,1.4-0.5,1.2-1.2c0,0,0,0,0,0c-0.8-3.5-1.9-13.4-2.5-14.7
			c-0.5-1.3-3.7-5.9-12.1-9.2C364.3,146.1,357.7,145.2,356.6,145.1z"/>
		<path id="XMLID_76_" class="st11" d="M363.6,161.9c0,6.4,10.8,7.4,11.8,7.4c1.1,0,1.9-3.3,1.9-7.4c0-4.1-0.9-7.4-1.9-7.4
			C374.3,154.5,363.6,155,363.6,161.9z"/>
		<path id="XMLID_73_" class="st10" d="M355.1,145.6c3.5,5.6,9.2,12,16.4,18c5.3,4.5,10.8,8.1,15.7,10.7c-0.2,0.3-0.6,0.5-1,0.4
			c-1.3-0.2-4.1-0.6-8.4-1.1c-5.9-0.6-6.9-1.5-8.5-2.2c-3-1.3-6.9-6.1-8.1-8.6c-3.5-7.3-6.2-13.7-6.6-15.3
			C354.4,146.7,354.7,146,355.1,145.6z"/>
	</g>
	<g id="XMLID_69_">
		<ellipse id="XMLID_71_" class="st12" cx="243" cy="136.5" rx="6.1" ry="2.8"/>
		<path id="XMLID_70_" class="st13" d="M238.1,137.9h9.9c0.7,0,1.3-0.6,1.3-1.3l0,0c0-0.7-0.6-1.3-1.3-1.3h-9.9
			c-0.7,0-1.3,0.6-1.3,1.3l0,0C236.8,137.3,237.4,137.9,238.1,137.9z"/>
	</g>
	<g id="XMLID_27_">
		<path id="XMLID_68_" class="st14" d="M1.5,164.7v9.7c0,1.4,1.2,2.6,2.6,2.6h10.4v-12.3H1.5z"/>
		<rect id="XMLID_67_" x="1.5" y="145.5" class="st15" width="12.9" height="19.2"/>
		<path id="XMLID_29_" class="st15" d="M1.5,134.2v11.2h12.9v-14.1H4.4C2.8,131.4,1.5,132.7,1.5,134.2z"/>
		<path id="XMLID_28_" class="st16" d="M3.7,151.9v6.3c0,1.9,0.7,3.5,1.6,3.5h0.9c0.9,0,1.6-1.6,1.6-3.5v-6.3c0-1.9-0.7-3.5-1.6-3.5
			H5.3C4.5,148.5,3.7,150,3.7,151.9z"/>
		<path id="XMLID_31_" class="st16" d="M3.6,139.1v0.9c0,2.1,0.8,3.8,1.7,3.8h1c1,0,1.7-1.7,1.7-3.8v-3c0-2.1-0.8-3.8-1.7-3.8h0
			C4.8,133.2,3.6,135.8,3.6,139.1z"/>
	</g>
	<g>
		<path id="Shina_3_" class="st17" d="M48.8,205.9c0,17,13.8,30.8,30.8,30.8c17,0,30.8-13.8,30.8-30.8c0-17-13.8-30.8-30.8-30.8
			C62.6,175,48.8,188.8,48.8,205.9z"/>
		<path id="XMLID_1397_" class="st2" d="M92.8,205.9c0,7.2-5.9,13.1-13.1,13.1l0,0c-7.2,0-13.1-5.9-13.1-13.1l0,0
			c0-7.2,5.9-13.1,13.1-13.1l0,0C86.9,192.7,92.8,198.6,92.8,205.9L92.8,205.9z"/>
	</g>
	<g>
		<path id="Shina_1_" class="st17" d="M279.9,205.9c0,17,13.8,30.8,30.8,30.8c17,0,30.8-13.8,30.8-30.8c0-17-13.8-30.8-30.8-30.8
			C293.7,175,279.9,188.8,279.9,205.9z"/>
		<path id="XMLID_1_" class="st2" d="M323.8,205.9c0,7.2-5.9,13.1-13.1,13.1l0,0c-7.2,0-13.1-5.9-13.1-13.1l0,0
			c0-7.2,5.9-13.1,13.1-13.1l0,0C318,192.7,323.8,198.6,323.8,205.9L323.8,205.9z"/>
	</g>
</g>
</svg>
